<?xml version="1.0" encoding="UTF-8" standalone="no"?>
<!-- Created with Inkscape (http://www.inkscape.org/) -->

<svg
   xmlns:dc="http://purl.org/dc/elements/1.1/"
   xmlns:cc="http://creativecommons.org/ns#"
   xmlns:rdf="http://www.w3.org/1999/02/22-rdf-syntax-ns#"
   xmlns:svg="http://www.w3.org/2000/svg"
   xmlns="http://www.w3.org/2000/svg"
   xmlns:sodipodi="http://sodipodi.sourceforge.net/DTD/sodipodi-0.dtd"
   xmlns:inkscape="http://www.inkscape.org/namespaces/inkscape"
   width="1000"
   height="1000"
   id="svg2"
   version="1.1"
   inkscape:version="0.48.2 r9819"
   sodipodi:docname="outer heaven.svg">
  <defs
     id="defs4" />
  <sodipodi:namedview
     id="base"
     pagecolor="#ffffff"
     bordercolor="#666666"
     borderopacity="1.0"
     inkscape:pageopacity="0.0"
     inkscape:pageshadow="2"
     inkscape:zoom="0.35"
     inkscape:cx="348.69223"
     inkscape:cy="316.07562"
     inkscape:document-units="px"
     inkscape:current-layer="layer1"
     showgrid="false"
     inkscape:window-width="1440"
     inkscape:window-height="838"
     inkscape:window-x="-8"
     inkscape:window-y="-8"
     inkscape:window-maximized="1" />
  <metadata
     id="metadata7">
    <rdf:RDF>
      <cc:Work
         rdf:about="">
        <dc:format>image/svg+xml</dc:format>
        <dc:type
           rdf:resource="http://purl.org/dc/dcmitype/StillImage" />
        <dc:title></dc:title>
      </cc:Work>
    </rdf:RDF>
  </metadata>
  <g
     inkscape:label="Layer 1"
     inkscape:groupmode="layer"
     id="layer1"
     transform="translate(0,-52.362183)">
    <path
       style="fill:#000000;fill-opacity:1;stroke:none"
       d="m 516.99554,122.12558 c -1.68847,0.007 -3.35692,0.0399 -5.03125,0.0625 -0.0104,1.4e-4 -0.0208,-1.4e-4 -0.0312,0 -3.04694,0.68644 -3.10832,3.41562 -3.09375,7.15625 0.0206,5.28597 -0.75255,9.74821 3.40625,10.03125 l 0.90625,0 c 18.98219,0.44826 38.16291,2.08447 57.5625,4.875 0.0385,-0.0378 0.56708,0.0686 0.71875,0.0937 3.60218,0.43018 4.47828,-1.92186 5.71875,-9.21875 1.29376,-7.6104 2.44892,-9.72579 -4.1875,-10.625 -19.45939,-1.66325 -38.11458,-2.45273 -55.96875,-2.375 z m -45.71875,2.25 c -16.79193,1.60948 -32.7668,4.09622 -47.96875,7.40625 -3.15525,1.05076 -2.77847,4.166 -1.78125,8.15625 1.09235,4.37092 3.12532,6.1652 6.15625,5.96875 0.0302,-0.005 0.0635,0.005 0.0937,0 14.68313,-2.67078 29.48156,-4.53692 44.40625,-5.59375 2.45917,-0.52199 3.21522,-1.87732 2.90625,-7.96875 -0.29839,-5.88274 -0.44588,-7.70911 -3.8125,-7.96875 z m 153.96875,7.09375 c -2.83377,-0.17567 -5.71203,3.58069 -7.125,10 -0.80414,3.65332 -2.00491,9.98629 0.8125,11.4375 39.50236,9.58116 105.24403,34.21407 106.0625,50.875 0.31035,6.31751 -13.47815,12.96438 -23.5,16.0625 -7.89244,2.43984 -15.36804,4.76384 -22.6875,7.03125 -40.83084,-30.49512 -98.50106,-57.01231 -177.03125,-58.8125 -70.7448,-1.62172 -142.55342,18.32628 -199.28125,72.59375 -50.02986,-6.83252 -98.90644,-10.42107 -138.21875,7.40625 -95.294014,43.21386 -104.270024,179.09256 30,212.875 4.47941,2.71931 9.66533,2.06117 12.40625,10.15625 7.75215,41.72133 29.11185,72.50459 44.34375,91.53125 1.48138,1.89966 2.99546,3.77418 4.5625,5.59375 1.41056,1.69993 2.84905,3.3962 4.0625,4.84375 l 0.15625,-0.15625 c 6.47667,6.99448 13.42736,13.48718 20.3125,19.75 15.09661,13.73212 31.25931,22.19353 48.71875,27.65625 25.30858,7.91857 33.18938,18.04254 35.75,28.25 1.12081,13.90363 2.08486,32.02079 1.53125,38.1875 -7.08858,78.95941 31.37299,103.69345 48.40625,122.84375 14.13501,15.8918 90.00723,69.6084 207.875,48.75 12.22792,-2.1639 35.08476,-13.0429 48.0625,-26.40625 3.31332,-3.3906 5.38965,-10.40965 -4,-17.03125 -6.51263,-4.59274 -8.19557,-11.17462 -7.875,-17.5 2.93819,-11.51852 4.27879,-13.60041 7.875,-19.6875 4.02813,-6.81816 4.99488,-11.33224 5.3125,-17.5 0.0296,-0.11379 0.0643,-0.19923 0.0937,-0.3125 11.33111,-11.145 21.58945,-21.09239 41.6875,-26.84375 37.50313,-10.73208 96.63022,-10.16143 63.59375,45 -46.92855,78.35725 -140.92601,107.15625 -218.59375,107.15625 -108.34397,0 -195.37388,-67.9457 -219.28125,-130.71875 -4.37001,-11.47425 -17.04027,-87.01312 -53.5625,-135.71875 l -0.125,0.0625 c -9.50455,-15.57715 -26.46132,-31.95784 -44.59375,-39.71875 -13.84152,-5.92435 -31.36385,-9.06206 -47.5,-9.09375 -16.13615,-0.0317 -30.85928,3.03756 -39.09375,9.59375 -16.52403,13.15625 -23.09161,48.63837 -27.78125,73.75 -5.0367,26.97001 -18.45445,25.81284 -17.96875,80.09375 0.19159,21.41181 21.74102,47.41856 24.53125,56.28125 2.8865,10.1563 14.48305,43.4628 20.78125,47.12495 5.93049,3.0311 10.4926,8.4317 15.5625,12.9688 3.7301,0.594 12.09373,0.9269 20.21875,0.375 15.31049,8.5118 24.33613,20.2132 29.40625,33.7188 5.13897,13.6884 -1.40732,33.4082 -19.8125,34.5937 -11.19045,0.7208 -30.23006,-16.0301 -39.28125,-43.0313 -0.81814,-2.4403 -1.0697,-6.2246 -1.125,-10.5 -4.28193,6.2781 -4.74716,14.2392 -4.53125,22.2188 0.007,16.6404 15.50148,40.2226 36.34375,52.0312 27.25084,9.4892 53.18599,-6.1985 49,-35.3437 -1.49066,-10.6325 -2.17511,-25.9753 -36.125,-50.6563 -2.32249,-2.5596 -9.51756,-6.162 -8.4375,-9.4687 3.84691,-6.2177 5.26114,-13.55805 8.1875,-29.78125 2.90594,-14.2324 5.77238,-28.32505 16.6875,-48.5 10.572,-17.14356 18.47382,-57.48365 -0.25,-94.1875 -0.63134,-4.75613 -9.37447,-15.27843 -3.03125,-27.53125 3.2151,-4.18369 11.59295,-3.99988 10.5625,2.3125 -5.19377,-1.37481 -8.97351,4.19429 -6.625,9.125 27.85592,51.02644 11.16921,94.92532 32.15625,139.28125 45.1456,96.85035 154.7861,175.28365 302.125,176.84375 117.59217,0 187.34166,-29.4041 266,-108.0625 35.77085,-35.7708 75.78017,-109.37852 41.5,-182.71875 -22.98245,-49.16948 -98.60212,-53.77282 -155.1875,-36.90625 -3.05044,0.38722 -5.17671,-2.02849 -2.875,-9.21875 0.76591,-1.65899 -1.11554,-11.22291 0.5,-15.40625 2.77341,-5.51074 20.04425,-15.80028 25.75,-22.71875 3.15673,-2.65165 14.26586,-7.45934 12.875,-29.53125 -0.82614,-3.44858 1.94708,-5.1128 5.1875,-6.1875 1.3469,-0.0396 2.65621,-0.0427 3.90625,-0.0312 43.88702,-1.26558 53.1248,-4.84649 73.78125,-14.625 46.16903,-21.85585 56.70918,-52.28868 65.71875,-79.28125 13.86514,-41.5398 1.19734,-88.37694 -30.375,-116.09375 -27.66216,-24.28413 -55.62889,-32.49621 -92.84375,-31.40625 -5.25297,0.64866 -7.98264,-0.89704 -10.21875,-3.15625 -4.86831,-8.06614 -14.73502,-24.18601 -30.84375,-43.0625 -0.39854,-0.94626 -0.11805,-1.86486 0.5625,-2.6875 41.87238,-18.90765 69.29915,-40.51782 66.65625,-59.21875 -5.31511,-37.60932 -114.0856,-68.25655 -169.28125,-79.46875 -0.18825,-0.047 -0.37358,-0.082 -0.5625,-0.0937 z m -236.9375,10.03125 c -0.256,0.007 -0.52061,0.0104 -0.78125,0.0625 -10.39134,3.47654 -20.32711,7.44225 -29.875,11.8125 -2.31421,2.03663 -3.19644,3.36267 -1.125,7.1875 1.55189,2.86553 2.75904,3.68053 5.125,3.3125 10.19117,-3.72211 20.44518,-7.01795 30.75,-9.875 1.91163,-0.99244 2.15625,-2.93575 1,-7.625 -0.79896,-3.24022 -2.82432,-4.93627 -5.09375,-4.875 z m -57.4375,26.15625 c -0.27501,0.03 -0.59525,0.1456 -0.90625,0.28125 -14.99804,9.03585 -28.79286,19.32693 -41.40625,30.84375 14.873,-8.85012 29.86262,-16.66816 44.96875,-23.46875 1.1734,-0.88534 1.49062,-2.26607 0.125,-4.9375 -1.14218,-2.23431 -1.92446,-2.81226 -2.78125,-2.71875 z m 159,11.0625 c 3.79162,-0.0381 7.63908,-0.0143 11.5625,0.0625 68.95429,1.34968 121.6888,22.67049 160.65625,48.75 3.06706,2.68419 1.52752,4.19667 -1.1875,4.84375 -71.13284,21.42733 -126.08388,32.30121 -267.75,20.28125 -23.53956,-1.99726 -47.99935,-5.82369 -72.4375,-9.40625 -1.62941,-0.43036 -4.66255,-1.30429 -2.8125,-4.375 18.26251,-19.75521 72.53696,-59.15817 171.96875,-60.15625 z m 211,102.8125 c 2.08775,6.41841 -14.25833,17.82675 -26.0625,31.96875 l -45.9375,53.53125 -41.9375,47.46875 -9.09375,9.59375 c -3.06601,1.55392 -3.69612,0.89603 -7.0625,-1 -7.32596,-5.65585 -15.77047,-8.13949 -26.125,-10.09375 -12.96363,-1.94297 -24.47268,-4.10847 -41.0625,-2.03125 -16.58981,2.07721 -23.37835,7.79633 -33.3125,15.15625 -4.38013,5.05357 -8.25502,9.58158 -11.625,13.625 -13.83598,18.59597 -12.60715,34.75153 -17.1875,48.5 -0.44451,5.46069 -2.5689,9.75861 2.03125,18.6875 9.42153,12.17432 19.51633,18.85405 29.28125,28.28125 2.01445,1.63072 3.47949,2.66084 2.53125,5.9375 l -31.8125,36.375 -12.5625,14.25 c -3.60754,2.16629 -6.1567,0.39137 -9.40625,-0.75 -20.44242,-12.74135 -11.54168,-25.82184 -7.59375,-26.53125 4.54569,-2.48671 6.70431,-0.2652 11.25,-1 2.67419,-4.49722 8.58846,-2.8229 8.71875,-3.78125 -0.24378,-6.6098 -5.95213,-4.28792 -8.34375,-4.8125 -12.82847,-0.45086 -19.28989,-3.81513 -33.84375,-5.0625 -16.00279,-1.24255 -30.45636,-2.11722 -46.125,-2.28125 -20.47767,-1.89196 -31.09415,-5.65105 -38.21875,-9.0625 -19.541,-12.17752 -5.39964,-17.16852 1.53125,-11.625 1.59929,-0.29127 1.43476,-2.1557 1.75,-3.53125 -10.48587,-4.61463 -13.60918,-16.76183 -6.84375,-20.8125 -0.85966,-8.30839 7.3619,-3.59137 3.8125,-22.125 -6.67417,-18.28636 -10.68979,-30.87713 -10.59375,-34.84375 0.0878,-4.29675 -2.20719,-6.75349 -2.9375,-9.25 -0.0593,-1.77308 0.25453,-3.92213 0.40625,-5.90625 -1.40941,2.178 -3.42797,6.30786 -2.78125,9.84375 1.05639,3.09778 2.07765,3.74327 1.78125,7.34375 -0.57217,6.25569 -0.065,5.30447 0,7.3125 4.87641,7.47334 5.99521,16.36729 8.0625,21.46875 2.43442,11.26293 -1.34393,11.90298 -4.78125,11.875 -1.13437,-0.0122 -3.21589,-0.92345 -3.65625,1.3125 -1.42736,0.7407 -1.66483,2.66451 -1.40625,4 0.61589,4.30061 0.58686,7.73015 0.5,11.09375 2.23495,5.52788 2.46854,8.75752 0.375,9.1875 -0.34195,2.2916 -3.03243,2.25461 -3.65625,2.4375 -4.12479,1.27571 -7.62967,1.67752 -11.84375,1.125 -8.6084,-0.98793 -1.45365,5.57592 -0.0625,7.59375 7.13945,10.26467 15.20257,14.24397 23.03125,21.0625 12.87049,7.79471 2.98557,10.9332 0.5,9.875 -11.28911,-1.90553 -23.75942,-3.01672 -30.3125,-10.5625 -8.42958,-9.70654 -5.81669,-2.33261 -3.53125,4 4.86871,7.83652 5.89747,6.03204 8.84375,9.0625 2.52698,3.64018 -2.70121,5.8329 -4.40625,4.1875 -1.46192,-1.13468 -2.8378,-2.2475 -4.15625,-3.34375 -54.3596,-49.70149 -82.17593,-141.66466 -10.65625,-246.90625 1.91349,-2.09572 2.9491,-2.75789 5.0625,-3.09375 54.9469,0.21107 145.7803,8.49493 233.59375,8.78125 64.99583,2.40269 144.85683,-13.82622 205.875,-36.53125 z m 29.6875,11.5 c 0.41825,-0.009 0.80828,0.0782 1.21875,0.25 0.01,0.004 0.0214,-0.004 0.0312,0 14.99141,19.7497 21.75,34.09375 21.75,34.09375 l 0.3125,-0.3125 c 16.22509,31.4399 7.64682,41.35825 6.5,47.75 -10.32874,32.88649 0.46369,32.94044 5.71875,53.25 4.62638,17.87987 0.22333,33.95647 -4.5625,33.5 -2.27919,-0.21739 -4.09324,-0.73245 -5.5625,-1.3125 -2.01295,-1.54292 -3.90001,-3.25207 -5.96875,-5.03125 -14.21346,-15.80672 -10.06506,-10.14973 -26.15625,-8.03125 -26.8463,3.53444 -39.96244,3.21867 -50.4375,-7.5 -8.19967,-8.61021 -7.73489,-9.62124 -0.71875,-14.75 5.61362,-7.81141 2.49088,-8.12378 0.1875,-14 -5.82422,-10.4579 -2.61894,-15.61221 -2.15625,-22.875 -6.85131,7.14286 -8.01829,16.34821 -6.4375,21.4375 2.41522,6.79121 -1.06907,8.98282 -5,10.71875 -8.45397,1.99942 -9.71356,6.36361 -11.25,10.53125 -1.60258,4.34705 -11.50893,8.59226 -17.3125,12.3125 -11.28285,6.11461 -17.22579,5.80211 -21.59375,3.4375 -0.24156,-0.22634 -0.47476,-0.46335 -0.71875,-0.6875 -8.01355,-6.17874 -4.79829,-6.41145 -1.25,-11.09375 l 51,-58.09375 60.09375,-71.21875 c 4.26036,-5.04799 8.45795,-12.29475 12.3125,-12.375 z m -490.53125,16.71875 c 2.58064,0.52639 4.31573,2.39716 3.46875,5.03125 -11.11234,17.90104 -19.50829,34.9893 -25.65625,51.21875 -2.51914,3.54335 -4.49661,3.06343 -7.625,2.71875 -23.59973,-6.07316 -38.21998,-41.94779 8.5625,-56.0625 5.14371,-1.48707 12.35205,-2.41042 21.25,-2.90625 z m 210.625,47.59375 c -0.4641,0.0918 -0.82917,2.2178 -1.0625,6.875 -0.45576,4.01729 -0.42051,4.64214 -0.75,11.8125 -3.81234,74.04155 -43.21536,134.29663 -108.46875,124.53125 -6.53867,-0.39265 -5.36508,1.21729 1.78125,4.375 4.91313,1.90598 8.52037,2.46703 12.125,2.78125 41.07532,1.89889 107.06918,-21.20646 99.65625,-132.15625 -1.17695,-11.1613 -2.39526,-18.39398 -3.28125,-18.21875 z m 327.25,44.75 c 29.04087,-0.99953 36.46085,20.02876 35.53125,31.375 -2.16147,26.38185 -15.21833,31.90082 -30.78125,33.25 -4.53341,0.28207 -8.28872,0.16801 -11.5,-0.25 -2.72773,-1.49226 -2.7199,-2.96944 -2.0625,-5 11.52511,-19.30438 6.3038,-28.90659 1.28125,-42.3125 -8.3806,-11.80915 3.46803,-15.91636 7.53125,-17.0625 z m -127.65625,35.8125 c 2.39377,-0.10882 3.35653,0.96643 4.71875,1.125 3.1307,0.36444 18.10901,-0.60338 24.875,20.34375 3.58021,10.56625 -7.99043,19.19363 -6.65625,29.46875 -0.19025,4.78522 -0.0399,11.41479 -0.28125,17.71875 2.64039,29.87274 6.93713,32.98825 16.375,32.21875 7.52041,-0.34601 11.08493,0.88957 13.90625,3.90625 -0.0292,0.0325 -0.0667,0.0605 -0.0937,0.0937 1.91966,4.70989 -0.4157,4.56686 -2.75,4.03125 -9.11127,-3.18772 -4.13359,1.4464 -9.09375,1.28125 -10.13981,-0.99749 -14.90535,-5.77136 -18.6875,-11.5 -6.47978,-4.88139 -5.29486,-5.92781 -7.59375,-8.71875 -1.71938,-1.96778 -2.94387,-2.66097 -3.875,-2.65625 -1.55188,0.008 -2.26136,1.97293 -2.9375,3.40625 -0.24081,3.18657 -2.596,4.80301 -4.03125,7.09375 -2.74084,1.99255 -2.08911,3.8954 1.375,4.03125 3.04371,-0.83486 3.15513,0.26594 2.90625,3.03125 -0.12337,5.35409 0.41209,8.25018 -0.625,15.15625 -3.37557,12.67011 -7.92294,8.09742 -9.46875,2.03125 -0.90143,-9.92615 -4.21924,-6.34821 -6.5625,-1.03125 -4.54569,11.56701 -9.11056,14.52818 -13.65625,20.21875 -11.87415,11.90318 -18.32661,16.0325 -22.46875,21.96875 -5.05415,9.7053 -7.59937,5.1864 -7.0625,12.75 -4.48839,8.72346 -0.21088,11.41383 2.03125,14 9.0238,4.43433 16.40605,9.89485 19.4375,13.90625 2.45488,1.96349 4.69385,3.49023 6.8125,4.78125 3.55421,3.05565 5.15649,-0.26339 4.53125,-4.78125 0.45357,-1.52276 0.053,-3.72819 2.03125,-4.03125 -4.09925,-4.79823 -4.42206,-8.99191 -3.78125,-12.90625 1.3982,-2.02672 1.21773,-3.85886 5.03125,-6.1875 1.10444,-3.96822 6.72808,-2.30145 7.09375,0.40625 4.05322,0.95468 6.90131,3.60476 7.3125,6.03125 1.76919,0.791 1.64604,3.33541 0.25,5.0625 -0.33528,3.11752 -0.7458,5.71651 -2.78125,5.8125 -2.26624,6.62288 0.57941,6.47864 4.8125,6.0625 l 10.09375,0 c 3.97109,-0.92046 7.78274,-5.99792 7.84375,-8.34375 -0.42004,-4.4598 0.34408,-5.74701 1.25,-8.3125 l 0.375,-23 c -0.84148,-1.98752 -2.06929,-0.98251 -2.15625,-5.5625 l -0.375,-10.96875 c -1.66472,-0.18032 -0.54923,-11.33925 -2.90625,-10.75 -2.96221,-7.61823 -1.18622,-11.80451 -1.125,-17.78125 0.62284,-3.38404 0.10065,-6.92688 1.65625,-10 3.73943,-6.8391 4.4799,-5.35543 7.1875,-0.5 4.63557,5.72777 13.39563,7.67297 15.78125,7.71875 6.74504,0.11558 9.30397,5.02926 12.375,8.1875 l 8.09375,7.34375 c 4.7998,1.7274 6.14451,-0.78529 5.53125,-5.8125 -2.46908,-3.72138 -2.54384,-5.87436 0.78125,-5.9375 3.45012,-0.75224 8.53441,-0.27778 13.6875,0.6875 2.67749,2.0449 6.17271,1.75858 6.03125,6.75 -0.13155,16.02608 -4.90238,19.44041 -9.59375,23.25 -7.87318,7.72225 -17.91848,16.36859 -31.1875,22.71875 3.03228,3.05425 3.6096,4.64604 3.8125,7.96875 -0.63135,3.07663 -0.20287,6.60618 -1.15625,16.78125 -0.56171,5.99494 0.11922,14.52479 -6.8125,20.96875 -3.9135,3.16657 -8.07513,10.10192 -11.90625,10.59375 -0.62297,-0.15581 -1.22659,-0.48425 -1.84375,-1.03125 -6.82633,-8.12781 -13.08111,2.36159 -16.5625,5.25 -3.32658,2.75997 -4.72603,1.92749 -6.78125,0.71875 -9.86558,-11.6441 -14.702,-0.48869 -17.78125,1.40625 -4.51723,5.21178 -8.92747,1.27263 -10.65625,-0.25 -11.75581,-11.36082 -13.98873,-5.37611 -21.34375,1.125 -4.46409,4.71429 -8.6226,2.86015 -10.875,-0.21875 -10.64008,-14.91311 -20.51389,-6.82616 -24.84375,-2.5625 -4.08597,5.30065 -8.98063,1.97475 -10.84375,-2.03125 -14.56348,-25.09532 -17.58812,-20.54448 -25.875,-11.03125 -4.46971,4.56593 -9.25872,2.14963 -12.65625,-1.34375 -7.7867,-3.61912 -20.42237,-18.60502 -30.625,-27.90625 -6.72896,-7.33978 -13.09806,-15.7104 -20.4375,-21.21875 -3.95895,-2.38728 -4.33663,-3.86708 -3.4375,-5.65625 l 4.4375,-5.1875 30.5625,-36.625 c 2.37588,-4.54027 5.74345,-2.89433 8.71875,-0.375 5.58198,4.72652 12.86617,8.23401 25.625,8.46875 4.51801,-0.40706 6.67482,1.01351 14.125,-1.5 6.26079,-2.11224 6.92402,-1.13159 9.09375,0.5 7.87736,6.85833 6.85393,9.07997 0,15.15625 -6.54702,8.55794 -4.13853,9.63489 -0.5,14.125 6.65465,8.67923 2.94576,8.03501 -2,19.1875 l 11.59375,-9.46875 c 3.49121,-2.99722 2.49474,-6.58929 1.53125,-10.21875 -3.00138,-5.35114 3.14885,-8.1383 6.5625,-11.5 l 18.6875,-16.78125 c 4.96122,-4.39255 1.42709,-6.126 0.25,-9.09375 -6.41857,-5.41965 0.39126,-8.59817 4.40625,-11.25 7.94082,-4.60191 14.03734,-10.95049 19.34375,-18.3125 6.97497,-9.67694 11.05465,-19.46973 13.375,-29.53125 0.91224,-8.8408 4.34156,-17.33277 1,-26.78125 -2.09273,-3.4374 -4.22284,-6.68576 -6.4375,-9.8125 -2.8238,-12.68183 10.88686,-18.53263 12.46875,-20.28125 7.12906,-4.67998 10.94998,-5.98493 13.34375,-6.09375 z M 374.71429,558.00058 c 7.19614,-0.15511 11.29521,1.11662 9.5625,7.4375 -1.0818,8.22715 12.67198,19.50269 19.0625,24.59375 5.90918,3.61941 10.65725,5.56478 14.90625,6.8125 4.33671,1.7751 4.39022,3.64324 3.53125,5.34375 l -42.4375,48.1875 c -3.33255,1.94162 -3.86879,-0.81163 -4.1875,-3.90625 l 0.0937,-16.0625 c -2.35878,-7.41821 0.6868,-1.15603 -3.96875,-27 -6.28969,-20.74262 -10.49137,-23.77421 -17.1875,-32.125 l -7.8125,-5.84375 c -2.55696,-1.01261 -4.05088,1.12023 -3.8125,2.34375 7.04771,6.84517 1.30021,10.11655 -0.75,10.875 -1.19422,2.74056 -8.4914,0.20985 -19.4375,1.78125 -7.64878,-2.45479 -6.10159,-6.90217 0,-9.625 11.94243,-8.40156 17.66983,-6.61454 18.9375,-7.40625 1.22119,-0.7627 2.64852,-3.79998 12.375,-4.125 8.04468,-0.17316 15.528,-1.16061 21.125,-1.28125 z m 270.125,28.59375 c 2.42877,-0.15848 5.04303,1.21143 8.65625,5.0625 1.38931,3.25474 3.0392,6.33706 1.5,11.21875 -1.0426,0.1491 -0.45898,2.22278 -1.5,3.375 -1.18286,1.3092 -1.58646,3.56604 -3.5625,5.46875 -0.65686,1.31406 0.51102,5.3625 -1.75,4.8125 -1.25077,1.57482 -3.01731,0.61601 -4.9375,-1.15625 -2.03683,-2.53479 -6.80254,-4.59348 -8.71875,-11.71875 -1.61864,-0.81594 -2.11733,-3.36777 -0.125,-5.8125 0.0422,-2.06248 1.55738,-4.68312 4.6875,-8.59375 2.07821,-1.48511 3.86095,-2.53299 5.75,-2.65625 z m -185.03125,31.625 c 1.84222,-0.0631 3.19892,1.79681 5.15625,4.6875 6.39613,6.4039 5.1241,8.75644 6.0625,14.0625 -1.98785,37.44503 0.54538,25.35831 0.75,44.21875 4.02267,11.65021 16.78217,34.92093 34.09375,51.875 3.6342,3.05254 5.52817,5.94371 4.03125,10.5 -0.67344,2.53092 -2.21885,4.04171 -4.28125,9.59375 -1.94853,4.5027 -5.56073,7.00574 -12.125,1 -8.96675,-5.84855 -20.60275,-19.55162 -28.78125,-31.8125 -3.31905,-5.01877 -7.17661,-6.33729 -7.875,-18.78125 -2.31712,-12.20491 -2.88606,-29.88877 -2.21875,-39.46875 -1.32666,-11.30624 -2.12828,-23.86787 1,-40.5 -0.0109,-1.62652 -1.38099,-2.40743 2.15625,-4.625 0.76677,-0.4807 1.41717,-0.72897 2.03125,-0.75 z m -17.96875,12.375 c 1.30248,-0.10395 2.15851,1.02172 1.75,5.21875 0.0596,15.51477 -0.63855,26.36911 -1.0625,41 -0.0337,3.91425 0.30909,5.8193 1.625,7.5 -0.0874,9.04931 -3.64914,2.85548 -4.5,1.25 -3.21513,-2.33087 -5.09862,-6.5298 -6.375,-9.15625 -2.06727,-4.25389 -2.75901,-6.3368 -1.71875,-2.4375 3.57474,11.95771 8.48642,17.155 12.125,24.625 12.30383,24.95674 24.64093,35.40327 33.09375,46.25 14.04408,15.34188 22.58418,23.27876 26.9375,31.1875 11.86749,20.2544 18.79048,23.13545 27,18.09375 1.24369,-1.504 4.67453,-1.38795 6,0.0312 11.70966,20.5725 27.43809,9.85365 30.5625,8.15625 3.57064,-3.2724 8.03101,-1.5371 9.3125,-0.0625 12.07891,14.7133 20.91589,6.86075 28.0625,2.96875 3.51015,-2.087 5.37246,-1.6906 8.125,-0.0625 15.27771,8.6813 21.2105,-0.4869 26.875,-4.9375 3.62853,-3.5665 5.22962,-3.5922 6.78125,-2.5 1.78018,2.1428 1.879,3.2074 3.15625,3.1875 2.65092,0.3805 1.8059,2.89898 3.6875,3.875 -0.008,7.8395 1.22826,8.78789 3.09375,10.90625 12.10194,9.7717 3.96559,13.249 1.375,15.375 -10.47601,8.59755 -26.05744,13.48475 -39.6875,17.28125 -57.61738,17.7027 -144.12524,-2.3356 -197,-47.46875 -34.89993,-33.28006 -43.92196,-62.61978 -45.78125,-89.84375 0.31777,-5.61439 1.46402,-5.2944 4.0625,-9.125 l 36.25,-41.8125 24.75,-29 c 0.53171,-0.26048 1.04393,-0.4636 1.5,-0.5 z m 98.78125,31.1875 c 0.15554,-0.004 0.28618,0.0144 0.4375,0.0312 4.78619,0.5362 9.24498,15.05019 9.84375,18.03125 1.52807,7.60764 1.4579,17.83228 0.53125,22.6875 -0.65314,7.0979 -6.16839,9.01274 -8.75,9.46875 -9.3963,0.14122 -19.10784,-12.31583 -18.75,-15.53125 0.31583,-7.52283 0.98718,-13.22723 4.09375,-21.8125 1.02688,-2.83789 7.77197,-12.7513 12.59375,-12.875 z m 130.59375,10.53125 c 2.72834,-0.29191 5.05684,3.47012 5.4375,6.1875 1.25981,8.99327 -1.40625,26.53125 -1.40625,26.53125 -0.24632,4.70235 -5.49873,12.94809 -10.09375,12.375 -1.9836,-0.24739 -6.38435,-4.47749 -7.0625,-8.21875 l 2.375,-17.5625 c 0,0 3.42503,-18.52878 10.75,-19.3125 z m -91.5,1.9375 c 0.61986,0.0129 1.27449,0.0888 1.90625,0.25 8.52246,2.17483 8.1875,19.09375 8.1875,19.09375 -0.8757,11.64145 -4.5195,19.65743 -7.65625,24.8125 -3.3084,3.77696 -20.19791,3.93526 -22.5,-8.375 -0.62259,-4.36414 0.81856,-16.77252 3.03125,-20.53125 0,0 7.73335,-15.44409 17.03125,-15.25 z m 63.84375,2.375 c 4.63242,-0.36404 8.4355,6.08056 8.9375,9.84375 1.58605,11.88957 1.0199,17.74116 -0.1875,25.15625 -3.81311,12.20616 -23.4481,9.55654 -24.4375,1.96875 0.10997,-7.017 -0.0283,-14.40325 2.5,-22.6875 0.67836,-2.22272 4.19269,-13.5744 13.1875,-14.28125 z m -29.53125,1.375 c 0.20667,9.1e-4 0.41962,0.0307 0.625,0.0625 4.60333,0.71329 5.3801,11.13076 5,13.03125 0.28184,9.76445 -1.33121,21.71643 -6.09375,28.03125 -9.2277,10.16158 -18.89174,3.57135 -19.625,-4.46875 1.29135,-5.57737 0.59719,-7.34295 6.78125,-22.3125 0,0 6.90584,-14.37195 13.3125,-14.34375 z m -398.625,49.75 c 1.41924,-0.0416 3.04541,0.68221 4.65625,2.65625 4.40837,4.8439 6.14584,16.36451 -4.0625,24.25 -6.65457,5.14037 -11.07367,2.25842 -12.625,-3.53125 -0.93559,-3.49169 -0.57721,-9.33282 8.59375,-21.46875 0.79344,-1.04996 2.01826,-1.86464 3.4375,-1.90625 z m -93,2.875 c 1.16752,0.011 2.11163,0.71853 2.375,1.75 1.47048,5.75907 3.5753,10.77592 4.28125,13.90625 0.55404,2.45688 0.40749,4.42373 0.0937,5.78125 -1.18285,5.11889 -2.39486,6.98232 -7.46875,2.4375 -7.78353,-6.97189 -6.45499,-17.1548 -3.09375,-21.4375 1.22821,-1.74533 2.64498,-2.4485 3.8125,-2.4375 z m 397.28125,9.65625 c 1.31234,0.0187 2.8012,0.46931 4.5,1.375 3.58575,1.96988 8.34781,6.21025 10.09375,8.21875 1.93365,1.92312 3.97192,4.22326 1.78125,11.84375 -2.0203,6.60808 -1.50992,12.25044 -6.0625,20.96875 -2.18879,5.12695 -5.40775,9.27805 -14.78125,1.53125 -3.00625,-3.91172 -6.89777,-4.83204 -5.5625,-19.21875 l 1.96875,-9.03125 2.09375,-9.5 c 1.11269,-4.135 3.08161,-6.22862 5.96875,-6.1875 z m 34.6875,15.53125 c 2.39586,-0.0164 5.3244,0.68678 8.96875,2.25 5.86007,3.07016 10.23044,8.51148 8.1875,17.3125 l -5.5625,15.78125 c -3.80451,7.556 -10.50392,12.5373 -20.5625,5.5625 -5.8216,-6.1769 -7.58908,-8.2129 -3.78125,-23.625 3.10604,-10.55173 5.56242,-17.23191 12.75,-17.28125 z m 104.1875,2.34375 c 7.58435,1.87114 7.77802,7.93747 4.375,13.46875 -1.45022,2.82195 -2.83085,5.77232 -3.8125,10 -0.31766,4.42665 -4.26118,11.23865 -7.15625,11.09375 -1.03283,0.2072 -6.26951,-2.7921 -6.59375,-6.4375 -0.62386,-6.33299 -0.68968,-12.41108 1.0625,-18.03125 0.9816,-2.81826 4.5718,-9.34837 12.125,-10.09375 z m -31.84375,4.3125 c 5.86727,-0.20208 12.13249,3.0289 12.3125,7.8125 -0.16151,7.47024 -1.0595,14.24865 -3.9375,21.09375 -2.8188,4.776 -6.34938,10.88935 -11.15625,10.78125 -1.22505,-0.2956 -7.6673,-2.5019 -8.03125,-12.125 -0.34854,-5.8591 -0.25957,-10.75847 0.875,-19.90625 1.03394,-5.25342 5.37407,-7.49907 9.9375,-7.65625 z m -33.53125,0.0312 c 1.73852,-0.0716 3.47953,0.14252 5.125,0.375 7.22391,2.59222 9.55845,7.57562 9.59375,11.875 -0.51327,6.45648 -0.82058,11.5575 -4.8125,20.5625 -3.06958,4.5054 -7.72849,10.7545 -16.03125,8.375 -3.47129,-0.9948 -7.4572,-5.44015 -7.4375,-17.34375 0.4799,-9.99196 2.61614,-15.66832 5.28125,-20.1875 2.4669,-2.65954 5.38371,-3.53683 8.28125,-3.65625 z m -256.09375,42.28125 c 6.74575,-0.012 13.33804,1.77645 17.90625,5.59375 16.71734,13.9753 14.96489,34.33085 4.65625,45.90625 -13.20225,14.8245 -34.64139,11.6086 -45.375,0.875 -13.0813,-13.0813 -9.9212,-33.0615 0,-43.75 5.20786,-5.6106 14.13938,-8.6091 22.8125,-8.625 z m 440.96875,5.125 c 0.10476,-0.013 0.17403,-0.01 0.21875,0.0312 l 34.84375,38.78125 c 1.31891,1.2536 -5.42948,9.2436 -7.8125,8.5938 l -31.5625,-8.2188 c -2.0059,-0.4908 -4.24316,1.0043 -3.03125,2.4062 l 18.6875,20.9688 c 1.28137,1.5378 -7.37696,8.9081 -8.21875,7.6875 l -36.375,-40.7813 c -0.58925,-0.9258 7.31447,-8.4001 8.46875,-8.0937 l 32.21875,8.5937 c 2.5674,0.2103 3.69822,-1.1225 2.5,-2.5312 l -18.6875,-20.5625 c -0.66669,-0.8664 7.17858,-6.6749 8.75,-6.875 z m -441.28125,6.375 c -5.7895,0.2425 -11.02327,3.68345 -14.28125,7.84375 -5.0777,6.4855 -4.48487,17.82755 1.96875,24.28125 7.04131,7.0413 17.22934,8.7061 25.90625,-1.7813 5.72437,-6.9167 6.79541,-19.4697 -2.875,-26.7812 -3.5766,-2.7042 -7.24506,-3.708 -10.71875,-3.5625 z m 46.46875,26.0937 c 1.56747,-0.0499 3.3465,0.6351 4.6875,1.6876 1.83611,1.4393 3.69499,3.8364 2.5,5.9062 0,0 -12.92395,17.5639 -18.28125,26.8438 -2.26676,3.9257 -1.86282,9.0378 1.25,11.0624 3.66067,2.3832 9.64185,1.0443 12.5,-3.9062 5.34141,-9.2516 17.5625,-27.2188 17.5625,-27.2188 1.25294,-2.1692 4.67059,-0.6486 6.625,0.875 2.15864,1.6848 4.02329,3.726 2.65625,6.0938 0,0 -14.27281,24.2728 -24,34 -6.49974,6.4997 -18.7975,2.9836 -24.21875,-1.2812 -4.04478,-3.183 -9.89455,-12.4816 -5.96875,-19.2813 6.68636,-11.5811 22.21875,-33.8125 22.21875,-33.8125 0.65395,-0.654 1.52826,-0.938 2.46875,-0.9688 z m 347.9375,5.4688 c 1.46351,-0.1078 6.74815,5.7338 5.6875,6.5625 l -14.90625,11.75 c -1.17851,0.5893 5.52081,9.1458 6.6875,8.5625 l 15.90625,-11.0938 c 0.88564,-0.9331 7.02406,6.2456 5.4375,7.3126 l -15.40625,12.75 c -0.98503,0.878 7.41521,12.0073 8.59375,11.25 l 14.53125,-9.9688 c 1.09546,-0.9224 7.5025,6.5122 6.3125,7.4375 l -24.375,15.9063 c -0.83454,0.5165 -32.11601,-43.097 -30.9375,-43.8126 l 22.21875,-16.5312 c 0.0605,-0.063 0.15243,-0.1178 0.25,-0.125 z m -308.21875,17.375 c 0.0977,-0.021 0.17218,-0.01 0.25,0.0312 l 25.125,13.2813 c 1.73736,0.7275 -2.15663,8.1581 -3.28125,7.3125 l -9.40625,-2.5 -18.875,39 c -0.94993,1.6461 -11.25679,-2.9325 -9.71875,-5.0625 l 19.1875,-38.375 -7.53125,-6.375 c -0.72982,-0.4979 2.78458,-7.0054 4.25,-7.3125 z m 277.1875,3.6875 c 0.58582,-0.049 0.95251,0.0659 0.96875,0.4063 l 3.5625,55.5312 c 0.46299,2.0645 -8.32022,6.8904 -9.625,6.0625 l -41.40625,-42.1563 c -0.84188,-1.2213 9.48344,-5.5208 10.375,-4.8124 l 27.125,28.9374 c 0.91104,0.9334 2.7421,-0.2616 2.78125,-1.5312 l -2.90625,-37.25 c -0.0475,-1.6724 6.58645,-4.9744 9.125,-5.1875 z m -240.15625,13.9063 c 0.0345,-0.011 0.0683,-0.0151 0.0937,0 l 25.875,9.2187 c 1.81897,0.7576 -2.41865,9.102 -3.53125,8.3437 l -17.8125,-6.0624 c -1.13643,-0.4484 -4.41641,9.8193 -3.40625,10.0937 l 17.8125,6.3125 c 1.95613,0.9863 -1.93438,10.3954 -3.28125,9.3438 l -17.5625,-5.5626 c -1.03612,-0.269 -6.8797,13.6676 -5.8125,14.2813 l 17.6875,7.0625 c 2.86403,1.4 -1.98308,10.3711 -3.28125,9.4688 l -26.5,-10.3438 c -2.18387,-0.734 17.54677,-51.4894 19.71875,-52.1562 z m 178.0625,9.3437 c 0.73112,-0.033 1.23692,0.015 1.40625,0.1875 l 31.875,44.75 c 1.18787,1.4966 -7.43107,6.6064 -9.34375,4.9375 l -8.21875,-9.0937 c -1.62667,-1.9673 -20.4611,3.1657 -20.375,5.4374 l -2.09375,11.0938 c -0.0462,1.9288 -11.3859,3.2587 -11.125,0.875 l 7.6875,-54.4375 c -0.12576,-1.7653 7.01932,-3.6069 10.1875,-3.75 z m -130.6875,3.5313 c 28.15066,0.196 32.05392,24.8779 9.78125,33.9687 l 7.65625,21.4375 c 0.68864,1.6133 -10.05506,4.2053 -10.53125,2.6875 l -6.96875,-22.1563 c -0.61035,-1.8896 -3.01891,-1.1981 -3.1875,-0.1562 l -2.6875,19.4375 c -0.19555,1.7775 -11.51785,0.8126 -11.25,-1.0625 l 7.6875,-53.375 c 3.42917,-0.5484 6.58786,-0.8024 9.5,-0.7812 z m 91.9375,3.3124 c 2.33855,-0.0579 4.44782,0.3005 4.4375,1.0313 l 3.5625,51.5937 c 0.52106,2.2446 -10.09284,4.0159 -10.65625,1.0313 l -1.5625,-20.6563 c -0.40649,-1.8875 -18.96756,-1.4116 -18.40625,0.9063 l 0.625,20.5 c 0.65831,2.1378 -10.798,4.6979 -10.875,0.7187 l -2.15625,-52.125 c -0.40073,-1.6948 10.58075,-2.7776 10.53125,-0.5312 l 0.6875,18.3125 c 0.11512,2.1698 19.16735,1.0731 19.15625,-0.8437 l -1.4375,-17.4688 c -0.29091,-1.6115 3.08705,-2.3927 6.09375,-2.4688 z m -90.4375,7.375 c -1.02605,0 -1.71875,0.0938 -1.71875,0.0938 l -1,11.25 c 0,0 10.52859,2.615 11.34375,-5.4688 0.52864,-5.2418 -5.54686,-5.8804 -8.625,-5.875 z m 127.75,0.1563 c -0.70096,0.07 -1.43339,0.5068 -1.4375,1.1875 l -1.78125,18.375 c 0.2376,2.0807 16.74235,-2.4752 14.8125,-4.625 l -10.53125,-14.6562 c -0.2313,-0.2463 -0.64193,-0.3235 -1.0625,-0.2813 z"
       id="path2996"
       inkscape:connector-curvature="0" />
    <text
       xml:space="preserve"
       style="font-size:40px;font-style:normal;font-weight:normal;line-height:125%;letter-spacing:0px;word-spacing:0px;fill:#000000;fill-opacity:1;stroke:none;font-family:Sans"
       x="-60"
       y="1246.6479"
       id="text3853"
       sodipodi:linespacing="125%"><tspan
         sodipodi:role="line"
         id="tspan3855"
         x="-60"
         y="1246.6479"
         style="font-style:normal;font-variant:normal;font-weight:bold;font-stretch:normal;font-family:Arial;-inkscape-font-specification:Arial Bold" /></text>
  </g>
</svg>
